<svg xmlns="http://www.w3.org/2000/svg" viewBox="0 0 48 48" fill="none" stroke="currentColor" stroke-width="1.6" stroke-linecap="round" stroke-linejoin="round">
  <title>Split bottle  line-art sibling of the official WineMark. The signature.</title>
  <path d="M21.7 5.2h4.6v4.2h-4.6z" />
  <path d="M21.1 9.4h5.8v4.6h-5.8z" />
  <path d="M16.7 14h14.6v24.4a4.2 4.2 0 0 1-4.2 4.2h-6.2a4.2 4.2 0 0 1-4.2-4.2z" />
  <path d="M16.7 21.2l3 .9 2.4-1.1 2.6 1.2 2.5-1.2 2.5 1.1 2.6-.9" opacity=".85" />
  <path d="M16.7 28.8l3 .9 2.4-1.1 2.6 1.2 2.5-1.2 2.5 1.1 2.6-.9" opacity=".85" />
  <path d="M16.7 36.4l3 .9 2.4-1.1 2.6 1.2 2.5-1.2 2.5 1.1 2.6-.9" opacity=".85" />
</svg>
